<?xml version="1.0" standalone="no"?>
<!DOCTYPE svg PUBLIC "-//W3C//DTD SVG 20010904//EN"
 "http://www.w3.org/TR/2001/REC-SVG-20010904/DTD/svg10.dtd">
<svg version="1.0" xmlns="http://www.w3.org/2000/svg"
 width="512.000000pt" height="512.000000pt" viewBox="0 0 512.000000 512.000000"
 preserveAspectRatio="xMidYMid meet">
<metadata>
Created by potrace 1.14, written by Peter Selinger 2001-2017
</metadata>
<g transform="translate(0.000000,512.000000) scale(0.100000,-0.100000)"
fill="#000000" stroke="none">
<path d="M2355 5104 c-16 -2 -73 -9 -125 -15 -530 -61 -1062 -323 -1459 -720
-334 -334 -584 -786 -680 -1233 -71 -326 -80 -713 -26 -1033 68 -394 238 -782
488 -1113 88 -116 293 -329 402 -417 361 -292 796 -483 1250 -550 167 -24 543
-24 710 0 436 64 830 231 1198 509 114 86 368 343 458 463 273 366 431 746
500 1210 19 121 19 578 1 700 -63 416 -192 755 -413 1084 -245 365 -553 640
-943 842 -261 135 -494 210 -791 255 -95 14 -503 27 -570 18z m516 -380 c602
-83 1155 -440 1500 -966 175 -267 286 -559 336 -880 24 -157 24 -489 -1 -648
-176 -1130 -1178 -1943 -2293 -1860 -237 18 -440 64 -644 145 -684 275 -1204
898 -1343 1611 -51 261 -55 551 -10 807 139 812 760 1504 1551 1731 286 82
598 103 904 60z"/>
<path d="M2314 3204 c-130 -263 -339 -687 -465 -942 -126 -255 -229 -468 -229
-473 0 -5 366 -9 945 -9 670 0 945 3 945 11 0 12 -937 1869 -951 1883 -4 5
-110 -198 -245 -470z"/>
</g>
</svg>
